<mxfile host="app.diagrams.net" modified="2021-05-27T04:28:34.107Z" agent="5.0 (Windows NT 10.0; Win64; x64) AppleWebKit/537.36 (KHTML, like Gecko) Chrome/90.0.4430.85 Safari/537.36" etag="SO9Rmbc4uAzy71WOeNxI" version="14.6.12" type="github">
  <diagram id="prtHgNgQTEPvFCAcTncT" name="Page-1">
    <mxGraphModel dx="1422" dy="748" grid="1" gridSize="10" guides="1" tooltips="1" connect="1" arrows="1" fold="1" page="1" pageScale="1" pageWidth="827" pageHeight="1169" math="0" shadow="0">
      <root>
        <mxCell id="0" />
        <mxCell id="1" parent="0" />
        <mxCell id="2utjeKSa2Xg59p1qhqc_-1" value="&lt;font color=&quot;#ffffff&quot;&gt;&lt;b&gt;数据生命周期&lt;/b&gt;&lt;/font&gt;" style="rounded=0;whiteSpace=wrap;html=1;fillColor=#3B3B3B;" vertex="1" parent="1">
          <mxGeometry x="110" y="280" width="580" height="40" as="geometry" />
        </mxCell>
        <mxCell id="2utjeKSa2Xg59p1qhqc_-2" value="&lt;font color=&quot;#ffffff&quot; size=&quot;1&quot;&gt;&lt;b style=&quot;font-size: 16px&quot;&gt;数据应用&lt;/b&gt;&lt;/font&gt;" style="rounded=0;whiteSpace=wrap;html=1;fillColor=#3B3B3B;" vertex="1" parent="1">
          <mxGeometry x="110" y="330" width="90" height="50" as="geometry" />
        </mxCell>
        <mxCell id="2utjeKSa2Xg59p1qhqc_-4" value="&lt;font color=&quot;#ffffff&quot;&gt;&lt;b&gt;数据可视化&lt;/b&gt;&lt;/font&gt;" style="text;html=1;strokeColor=none;fillColor=none;align=center;verticalAlign=middle;whiteSpace=wrap;rounded=0;" vertex="1" parent="1">
          <mxGeometry x="270" y="330" width="70" height="50" as="geometry" />
        </mxCell>
        <mxCell id="2utjeKSa2Xg59p1qhqc_-6" value="&lt;font color=&quot;#ffffff&quot;&gt;&lt;b&gt;个性化推荐&lt;/b&gt;&lt;/font&gt;" style="text;html=1;strokeColor=none;fillColor=none;align=center;verticalAlign=middle;whiteSpace=wrap;rounded=0;" vertex="1" parent="1">
          <mxGeometry x="430" y="330" width="80" height="50" as="geometry" />
        </mxCell>
        <mxCell id="2utjeKSa2Xg59p1qhqc_-7" value="&lt;font color=&quot;#ffffff&quot;&gt;&lt;b&gt;数据策略&lt;/b&gt;&lt;/font&gt;" style="text;html=1;strokeColor=none;fillColor=none;align=center;verticalAlign=middle;whiteSpace=wrap;rounded=0;" vertex="1" parent="1">
          <mxGeometry x="530" y="330" width="80" height="50" as="geometry" />
        </mxCell>
        <mxCell id="2utjeKSa2Xg59p1qhqc_-8" value="&lt;font color=&quot;#ffffff&quot;&gt;&lt;b&gt;数据可视化&lt;/b&gt;&lt;/font&gt;" style="text;html=1;strokeColor=none;fillColor=none;align=center;verticalAlign=middle;whiteSpace=wrap;rounded=0;" vertex="1" parent="1">
          <mxGeometry x="270" y="330" width="70" height="50" as="geometry" />
        </mxCell>
        <mxCell id="2utjeKSa2Xg59p1qhqc_-13" value="" style="group;fontSize=16;" vertex="1" connectable="0" parent="1">
          <mxGeometry x="220" y="330" width="390" height="50" as="geometry" />
        </mxCell>
        <mxCell id="2utjeKSa2Xg59p1qhqc_-3" value="" style="rounded=0;whiteSpace=wrap;html=1;fillColor=#3B3B3B;" vertex="1" parent="2utjeKSa2Xg59p1qhqc_-13">
          <mxGeometry width="390" height="50" as="geometry" />
        </mxCell>
        <mxCell id="2utjeKSa2Xg59p1qhqc_-12" value="" style="group" vertex="1" connectable="0" parent="2utjeKSa2Xg59p1qhqc_-13">
          <mxGeometry x="21.666666666666664" width="368.3333333333333" height="50" as="geometry" />
        </mxCell>
        <mxCell id="2utjeKSa2Xg59p1qhqc_-5" value="&lt;font color=&quot;#ffffff&quot;&gt;&lt;b&gt;用户画像&lt;/b&gt;&lt;/font&gt;" style="text;html=1;strokeColor=none;fillColor=none;align=center;verticalAlign=middle;whiteSpace=wrap;rounded=0;" vertex="1" parent="2utjeKSa2Xg59p1qhqc_-12">
          <mxGeometry x="97.5" width="75.83333333333333" height="50" as="geometry" />
        </mxCell>
        <mxCell id="2utjeKSa2Xg59p1qhqc_-9" value="&lt;font color=&quot;#ffffff&quot; size=&quot;1&quot;&gt;&lt;b style=&quot;font-size: 13px&quot;&gt;数据可视化&lt;/b&gt;&lt;/font&gt;" style="text;html=1;strokeColor=none;fillColor=none;align=center;verticalAlign=middle;whiteSpace=wrap;rounded=0;" vertex="1" parent="2utjeKSa2Xg59p1qhqc_-12">
          <mxGeometry width="75.83333333333333" height="50" as="geometry" />
        </mxCell>
        <mxCell id="2utjeKSa2Xg59p1qhqc_-10" value="&lt;font color=&quot;#ffffff&quot;&gt;&lt;b&gt;个性化推荐&lt;/b&gt;&lt;/font&gt;" style="text;html=1;strokeColor=none;fillColor=none;align=center;verticalAlign=middle;whiteSpace=wrap;rounded=0;" vertex="1" parent="2utjeKSa2Xg59p1qhqc_-12">
          <mxGeometry x="173.33333333333331" width="86.66666666666666" height="50" as="geometry" />
        </mxCell>
        <mxCell id="2utjeKSa2Xg59p1qhqc_-11" value="&lt;font color=&quot;#ffffff&quot;&gt;&lt;b&gt;数据策略&lt;/b&gt;&lt;/font&gt;" style="text;html=1;strokeColor=none;fillColor=none;align=center;verticalAlign=middle;whiteSpace=wrap;rounded=0;" vertex="1" parent="2utjeKSa2Xg59p1qhqc_-12">
          <mxGeometry x="281.66666666666663" width="86.66666666666666" height="50" as="geometry" />
        </mxCell>
        <mxCell id="2utjeKSa2Xg59p1qhqc_-14" value="" style="rounded=0;whiteSpace=wrap;html=1;fillColor=#3B3B3B;" vertex="1" parent="1">
          <mxGeometry x="640" y="330" width="50" height="390" as="geometry" />
        </mxCell>
        <mxCell id="2utjeKSa2Xg59p1qhqc_-15" value="&lt;font color=&quot;#ffffff&quot; size=&quot;1&quot;&gt;&lt;b style=&quot;font-size: 21px&quot;&gt;元数据管理&lt;/b&gt;&lt;/font&gt;" style="text;html=1;strokeColor=none;fillColor=none;align=center;verticalAlign=middle;rounded=0;horizontal=1;direction=east;rotation=0;whiteSpace=wrap;" vertex="1" parent="1">
          <mxGeometry x="652.5" y="425" width="25" height="190" as="geometry" />
        </mxCell>
        <mxCell id="2utjeKSa2Xg59p1qhqc_-16" value="数据存储/&lt;br&gt;分析" style="rounded=0;whiteSpace=wrap;html=1;fontSize=16;fillColor=#3B3B3B;" vertex="1" parent="1">
          <mxGeometry x="110" y="400" width="90" height="240" as="geometry" />
        </mxCell>
        <mxCell id="2utjeKSa2Xg59p1qhqc_-43" style="edgeStyle=orthogonalEdgeStyle;rounded=0;orthogonalLoop=1;jettySize=auto;html=1;exitX=0.25;exitY=0;exitDx=0;exitDy=0;entryX=1;entryY=1;entryDx=0;entryDy=0;fontSize=16;fontColor=#FFFFFF;strokeColor=#FFD966;" edge="1" parent="1" source="2utjeKSa2Xg59p1qhqc_-18" target="2utjeKSa2Xg59p1qhqc_-9">
          <mxGeometry relative="1" as="geometry" />
        </mxCell>
        <mxCell id="2utjeKSa2Xg59p1qhqc_-18" value="" style="rounded=0;whiteSpace=wrap;html=1;fontSize=16;fillColor=#3B3B3B;" vertex="1" parent="1">
          <mxGeometry x="219" y="405" width="390" height="230" as="geometry" />
        </mxCell>
        <mxCell id="2utjeKSa2Xg59p1qhqc_-40" value="" style="edgeStyle=orthogonalEdgeStyle;rounded=0;orthogonalLoop=1;jettySize=auto;html=1;fontSize=16;fontColor=#FFFFFF;strokeColor=#FFD966;entryX=0;entryY=0.5;entryDx=0;entryDy=0;" edge="1" parent="1" source="2utjeKSa2Xg59p1qhqc_-19" target="2utjeKSa2Xg59p1qhqc_-35">
          <mxGeometry relative="1" as="geometry">
            <mxPoint x="430" y="510" as="targetPoint" />
            <Array as="points" />
          </mxGeometry>
        </mxCell>
        <mxCell id="2utjeKSa2Xg59p1qhqc_-19" value="" style="rounded=0;whiteSpace=wrap;html=1;fontSize=16;fontColor=#FFFFFF;fillColor=#000000;" vertex="1" parent="1">
          <mxGeometry x="260" y="430" width="150" height="160" as="geometry" />
        </mxCell>
        <mxCell id="2utjeKSa2Xg59p1qhqc_-20" value="数据仓库" style="text;html=1;strokeColor=none;fillColor=none;align=center;verticalAlign=middle;whiteSpace=wrap;rounded=0;fontSize=16;fontColor=#FFFFFF;" vertex="1" parent="1">
          <mxGeometry x="270" y="460" width="25" height="95" as="geometry" />
        </mxCell>
        <mxCell id="2utjeKSa2Xg59p1qhqc_-21" value="DM层" style="text;html=1;strokeColor=none;fillColor=none;align=center;verticalAlign=middle;whiteSpace=wrap;rounded=0;fontSize=16;fontColor=#FFFFFF;" vertex="1" parent="1">
          <mxGeometry x="320" y="460" width="50" height="20" as="geometry" />
        </mxCell>
        <mxCell id="2utjeKSa2Xg59p1qhqc_-34" value="" style="edgeStyle=orthogonalEdgeStyle;rounded=0;orthogonalLoop=1;jettySize=auto;html=1;fontSize=16;fontColor=#FFFFFF;strokeColor=#FFD966;" edge="1" parent="1" source="2utjeKSa2Xg59p1qhqc_-22" target="2utjeKSa2Xg59p1qhqc_-21">
          <mxGeometry relative="1" as="geometry" />
        </mxCell>
        <mxCell id="2utjeKSa2Xg59p1qhqc_-22" value="DW层" style="text;html=1;strokeColor=none;fillColor=none;align=center;verticalAlign=middle;whiteSpace=wrap;rounded=0;fontSize=16;fontColor=#FFFFFF;" vertex="1" parent="1">
          <mxGeometry x="320" y="510" width="50" height="20" as="geometry" />
        </mxCell>
        <mxCell id="2utjeKSa2Xg59p1qhqc_-33" value="" style="edgeStyle=orthogonalEdgeStyle;rounded=0;orthogonalLoop=1;jettySize=auto;html=1;fontSize=16;fontColor=#FFFFFF;strokeColor=#FFD966;" edge="1" parent="1" source="2utjeKSa2Xg59p1qhqc_-23" target="2utjeKSa2Xg59p1qhqc_-22">
          <mxGeometry relative="1" as="geometry" />
        </mxCell>
        <mxCell id="2utjeKSa2Xg59p1qhqc_-23" value="ODS层" style="text;html=1;strokeColor=none;fillColor=none;align=center;verticalAlign=middle;whiteSpace=wrap;rounded=0;fontSize=16;fontColor=#FFFFFF;" vertex="1" parent="1">
          <mxGeometry x="315" y="560" width="60" height="15" as="geometry" />
        </mxCell>
        <mxCell id="2utjeKSa2Xg59p1qhqc_-35" value="" style="rounded=0;whiteSpace=wrap;html=1;fontSize=16;fontColor=#FFFFFF;fillColor=#000000;" vertex="1" parent="1">
          <mxGeometry x="440" y="430" width="140" height="160" as="geometry" />
        </mxCell>
        <mxCell id="2utjeKSa2Xg59p1qhqc_-36" value="数据分析" style="text;html=1;strokeColor=none;fillColor=none;align=center;verticalAlign=middle;whiteSpace=wrap;rounded=0;fontSize=16;fontColor=#FFFFFF;" vertex="1" parent="1">
          <mxGeometry x="456" y="475" width="28" height="90" as="geometry" />
        </mxCell>
        <mxCell id="2utjeKSa2Xg59p1qhqc_-37" value="业务模型" style="text;html=1;strokeColor=none;fillColor=none;align=center;verticalAlign=middle;whiteSpace=wrap;rounded=0;fontSize=16;fontColor=#FFFFFF;" vertex="1" parent="1">
          <mxGeometry x="489" y="475" width="80" height="20" as="geometry" />
        </mxCell>
        <mxCell id="2utjeKSa2Xg59p1qhqc_-38" value="OLAP分析" style="text;html=1;strokeColor=none;fillColor=none;align=center;verticalAlign=middle;whiteSpace=wrap;rounded=0;fontSize=16;fontColor=#FFFFFF;" vertex="1" parent="1">
          <mxGeometry x="482" y="540" width="90" height="20" as="geometry" />
        </mxCell>
        <mxCell id="2utjeKSa2Xg59p1qhqc_-46" value="" style="rounded=0;whiteSpace=wrap;html=1;fillColor=#3B3B3B;" vertex="1" parent="1">
          <mxGeometry x="220" y="670" width="390" height="50" as="geometry" />
        </mxCell>
        <mxCell id="2utjeKSa2Xg59p1qhqc_-47" value="" style="group" vertex="1" connectable="0" parent="1">
          <mxGeometry x="241.66666666666666" y="670" width="368.3333333333333" height="50" as="geometry" />
        </mxCell>
        <mxCell id="2utjeKSa2Xg59p1qhqc_-53" value="" style="group" vertex="1" connectable="0" parent="2utjeKSa2Xg59p1qhqc_-47">
          <mxGeometry x="-10" width="378.33333333333326" height="50" as="geometry" />
        </mxCell>
        <mxCell id="2utjeKSa2Xg59p1qhqc_-48" value="&lt;font color=&quot;#ffffff&quot;&gt;&lt;b&gt;业务数据&lt;/b&gt;&lt;/font&gt;" style="text;html=1;strokeColor=none;fillColor=none;align=center;verticalAlign=middle;whiteSpace=wrap;rounded=0;" vertex="1" parent="2utjeKSa2Xg59p1qhqc_-53">
          <mxGeometry x="107.5" width="75.83333333333333" height="50" as="geometry" />
        </mxCell>
        <mxCell id="2utjeKSa2Xg59p1qhqc_-49" value="&lt;font color=&quot;#ffffff&quot;&gt;&lt;span style=&quot;font-size: 13px&quot;&gt;&lt;b&gt;埋点行为数据&lt;/b&gt;&lt;/span&gt;&lt;/font&gt;" style="text;html=1;strokeColor=none;fillColor=none;align=center;verticalAlign=middle;whiteSpace=wrap;rounded=0;" vertex="1" parent="2utjeKSa2Xg59p1qhqc_-53">
          <mxGeometry width="85.83" height="50" as="geometry" />
        </mxCell>
        <mxCell id="2utjeKSa2Xg59p1qhqc_-50" value="&lt;font color=&quot;#ffffff&quot;&gt;&lt;b&gt;日志数据&lt;/b&gt;&lt;/font&gt;" style="text;html=1;strokeColor=none;fillColor=none;align=center;verticalAlign=middle;whiteSpace=wrap;rounded=0;" vertex="1" parent="2utjeKSa2Xg59p1qhqc_-53">
          <mxGeometry x="183.33333333333331" width="86.66666666666666" height="50" as="geometry" />
        </mxCell>
        <mxCell id="2utjeKSa2Xg59p1qhqc_-51" value="&lt;font color=&quot;#ffffff&quot;&gt;&lt;b&gt;外部接入数据&lt;/b&gt;&lt;/font&gt;" style="text;html=1;strokeColor=none;fillColor=none;align=center;verticalAlign=middle;whiteSpace=wrap;rounded=0;" vertex="1" parent="2utjeKSa2Xg59p1qhqc_-53">
          <mxGeometry x="291.66666666666663" width="86.66666666666666" height="50" as="geometry" />
        </mxCell>
        <mxCell id="2utjeKSa2Xg59p1qhqc_-54" value="数据采集" style="rounded=0;whiteSpace=wrap;html=1;fontSize=16;fontColor=#FFFFFF;fillColor=#3B3B3B;" vertex="1" parent="1">
          <mxGeometry x="110" y="670" width="90" height="50" as="geometry" />
        </mxCell>
        <mxCell id="2utjeKSa2Xg59p1qhqc_-56" value="" style="edgeStyle=orthogonalEdgeStyle;rounded=0;orthogonalLoop=1;jettySize=auto;html=1;fontSize=16;fontColor=#FFFFFF;strokeColor=#FFD966;" edge="1" parent="1" source="2utjeKSa2Xg59p1qhqc_-49">
          <mxGeometry relative="1" as="geometry">
            <mxPoint x="275" y="640" as="targetPoint" />
          </mxGeometry>
        </mxCell>
      </root>
    </mxGraphModel>
  </diagram>
</mxfile>
